
<!--
  InfiniteLimits Logo 5.4 Favicon
  Author: Daniel Li
  Date: May 05 2024
-->
<svg xmlns="http://www.w3.org/2000/svg" viewBox="-200 -200 400 400">
  <rect fill="#202024" x="-200" y="-200" width="400" height="400" />
  <path fill="#ffe000" d="M -100,-52.8 -144,-35.2 -100,74.8 -100,24.8 -119.862,-24.855 -100,-32.8 Z" />
  <path fill="#ffe000" d="M -10,-110 -80,-110 -80,-28.8 -10,-56.8 Z" />
  <path fill="#ffe000" d="M -10,-36.8 -80,-8.8 -80,124.8 -10,96.8 Z" />
  <path fill="#ff7800" d="M 10,36.8 80,8.8 80,-124.8 10,-96.8 Z" />
  <path fill="#ff7800" d="M 10,110 80,110 80,28.8 10,56.8 Z" />
  <path fill="#ff7800" d="M 100,52.8 144,35.2 100,-74.8 100,-24.8 119.862,24.855 100,32.8 Z" />
</svg>
